<svg width="48" height="48" viewBox="0 0 48 48" fill="none" xmlns="http://www.w3.org/2000/svg">
<path d="M46 11V40C46 44.4 42.4 48 38 48H23.4C21.24 48 19.2 47.14 17.7 45.62L2 29.66C2 29.66 4.52 27.2 4.6 27.16C5.04 26.78 5.58 26.58 6.18 26.58C6.62 26.58 7.02 26.7 7.38 26.9C7.46 26.92 16 31.82 16 31.82V8C16 6.34 17.34 5 19 5C20.66 5 22 6.34 22 8V22H24V3C24 1.34 25.34 0 27 0C28.66 0 30 1.34 30 3V22H32V5C32 3.34 33.34 2 35 2C36.66 2 38 3.34 38 5V22H40V11C40 9.34 41.34 8 43 8C44.66 8 46 9.34 46 11Z" fill="white"/>
</svg>
